# xmcd
#
# Track frame offsets:
#	150
#	13895
#	31175
#	46166
#	66876
#	84506
#	101186
#	115601
#	129461
#	147906
#	162211
#	177911
#	191425
#
# Disc length: 2722 seconds
#
# Revision: 0
# Processed by: cddbd v1.5.2PL0 Copyright (c) Steve Scherf et al.
# Submitted via: audiograbber 1.83.01
#
DISCID=a80aa00d
DTITLE=Various Artist - Hott Country 138
DYEAR=2007
DGENRE=Country
TTITLE0=Paul Brandt - Didn't Even See The Dust (Radio Version Full)
TTITLE1=Emerson Drive - You Still Owe Me
TTITLE2=Doc Walker - What Do You See
TTITLE3=Keith Anderson - Sunday Morning In America
TTITLE4=Jimmy Rankin - Still Lovers Now ( Radio Edit )
TTITLE5=Carrie Underwood - So Small
TTITLE6=Grd Bamford - Blame It On That Red Dress
TTITLE7=Johnny Reid - Darlin'
TTITLE8=Charlie Major - That's When I Feel Loved
TTITLE9=Brad Johner - You Can't Beat An Original
TTITLE10=Whiskey Falls - Last Train Running
TTITLE11=Paul Brandt - Didn't Even See The Dust ( Acoustic  Version )
TTITLE12=Oak Ridge Boys - Bobbie Sue ( 1982 )
EXTD=August 2007
EXTT0=
EXTT1=
EXTT2=
EXTT3=
EXTT4=
EXTT5=
EXTT6=
EXTT7=
EXTT8=
EXTT9=
EXTT10=
EXTT11=
EXTT12=
PLAYORDER=
